<svg id="svg" version="1.1" xmlns="http://www.w3.org/2000/svg" xmlns:xlink="http://www.w3.org/1999/xlink" width="400" height="400" viewBox="0, 0, 400,400"><g id="svgg"><path id="path0" d="M83.402 11.604 C 83.558 11.856,82.106 12.000,79.411 12.000 C 75.934 12.000,75.132 12.112,74.934 12.627 C 74.756 13.091,74.233 13.226,72.921 13.145 C 71.764 13.074,71.033 13.224,70.814 13.577 C 70.585 13.948,70.027 14.044,69.040 13.884 C 68.245 13.755,67.600 13.818,67.600 14.025 C 67.600 14.231,67.015 14.403,66.300 14.406 C 65.314 14.411,65.145 14.506,65.600 14.800 C 66.153 15.157,65.095 15.436,63.900 15.247 C 63.735 15.221,63.600 15.490,63.600 15.845 C 63.600 16.332,63.311 16.448,62.421 16.318 C 61.773 16.223,61.313 16.259,61.400 16.400 C 61.486 16.540,60.937 16.879,60.179 17.153 C 59.420 17.427,58.800 17.820,58.800 18.026 C 58.800 18.232,58.434 18.400,57.987 18.400 C 57.541 18.400,57.069 18.675,56.940 19.012 C 56.792 19.398,56.428 19.536,55.953 19.385 C 55.444 19.224,55.200 19.341,55.200 19.746 C 55.200 20.254,53.455 21.220,53.371 20.759 C 53.356 20.671,53.026 20.917,52.639 21.304 C 52.252 21.691,51.770 21.905,51.568 21.780 C 51.365 21.655,51.200 21.863,51.200 22.243 C 51.200 22.623,51.083 22.817,50.941 22.674 C 50.798 22.531,50.382 22.760,50.015 23.182 C 49.649 23.605,49.114 24.006,48.827 24.075 C 48.187 24.228,44.400 27.974,44.400 28.454 C 44.400 28.644,44.214 28.800,43.987 28.800 C 43.427 28.800,41.221 31.088,41.506 31.373 C 41.631 31.498,41.423 31.600,41.043 31.600 C 40.663 31.600,40.464 31.780,40.600 32.000 C 40.736 32.220,40.567 32.400,40.224 32.400 C 39.881 32.400,39.645 32.597,39.700 32.837 C 39.755 33.078,39.448 33.483,39.017 33.737 C 37.835 34.436,37.200 35.090,37.200 35.611 C 37.200 35.868,36.660 36.583,36.000 37.200 C 35.340 37.817,34.800 38.569,34.800 38.872 C 34.800 39.175,34.440 39.683,34.000 40.000 C 33.560 40.317,33.200 40.897,33.200 41.288 C 33.200 41.680,33.037 42.000,32.837 42.000 C 32.638 42.000,32.571 42.368,32.689 42.817 C 32.833 43.370,32.727 43.596,32.361 43.517 C 32.057 43.451,31.758 43.798,31.681 44.306 C 31.605 44.804,31.376 45.109,31.171 44.982 C 30.967 44.856,30.800 45.123,30.800 45.576 C 30.800 46.029,30.617 46.400,30.392 46.400 C 30.157 46.400,30.091 46.824,30.237 47.405 C 30.448 48.246,30.375 48.365,29.785 48.139 C 29.195 47.912,29.115 48.044,29.290 48.958 C 29.429 49.687,29.344 49.988,29.033 49.868 C 28.762 49.764,28.531 50.131,28.480 50.745 C 28.432 51.325,28.234 51.854,28.039 51.919 C 27.844 51.985,27.777 52.390,27.889 52.819 C 28.036 53.382,27.885 53.609,27.347 53.632 C 26.936 53.649,26.789 53.742,27.019 53.838 C 27.675 54.112,27.217 56.800,26.514 56.800 C 26.060 56.800,25.952 57.176,26.065 58.366 C 26.148 59.228,26.082 59.850,25.919 59.750 C 25.084 59.234,25.000 72.039,25.000 200.000 C 25.000 327.961,25.084 340.766,25.919 340.250 C 26.082 340.150,26.148 340.772,26.065 341.634 C 25.952 342.824,26.060 343.200,26.514 343.200 C 27.217 343.200,27.675 345.888,27.019 346.162 C 26.789 346.258,26.936 346.351,27.347 346.368 C 27.885 346.391,28.036 346.618,27.889 347.181 C 27.777 347.610,27.844 348.015,28.039 348.081 C 28.234 348.146,28.432 348.675,28.480 349.255 C 28.531 349.869,28.762 350.236,29.033 350.132 C 29.344 350.012,29.429 350.313,29.290 351.042 C 29.115 351.956,29.195 352.088,29.785 351.861 C 30.375 351.635,30.448 351.754,30.237 352.595 C 30.091 353.176,30.157 353.600,30.392 353.600 C 30.617 353.600,30.800 353.971,30.800 354.424 C 30.800 354.877,30.967 355.144,31.171 355.018 C 31.376 354.891,31.605 355.196,31.681 355.694 C 31.758 356.202,32.057 356.549,32.361 356.483 C 32.727 356.404,32.833 356.630,32.689 357.183 C 32.571 357.632,32.638 358.000,32.837 358.000 C 33.037 358.000,33.200 358.320,33.200 358.712 C 33.200 359.103,33.560 359.683,34.000 360.000 C 34.440 360.317,34.800 360.825,34.800 361.128 C 34.800 361.431,35.340 362.183,36.000 362.800 C 36.660 363.417,37.200 364.132,37.200 364.389 C 37.200 364.910,37.835 365.564,39.017 366.263 C 39.448 366.517,39.755 366.922,39.700 367.163 C 39.645 367.403,39.881 367.600,40.224 367.600 C 40.567 367.600,40.736 367.780,40.600 368.000 C 40.464 368.220,40.663 368.400,41.043 368.400 C 41.423 368.400,41.631 368.502,41.506 368.627 C 41.221 368.912,43.427 371.200,43.987 371.200 C 44.214 371.200,44.400 371.356,44.400 371.546 C 44.400 372.026,48.187 375.772,48.827 375.925 C 49.114 375.994,49.649 376.395,50.015 376.818 C 50.382 377.240,50.798 377.469,50.941 377.326 C 51.083 377.183,51.200 377.377,51.200 377.757 C 51.200 378.137,51.365 378.345,51.568 378.220 C 51.770 378.095,52.175 378.232,52.468 378.525 C 52.760 378.818,53.090 379.063,53.200 379.070 C 54.127 379.129,55.200 379.764,55.200 380.254 C 55.200 380.659,55.444 380.776,55.953 380.615 C 56.428 380.464,56.792 380.602,56.940 380.988 C 57.069 381.325,57.541 381.600,57.987 381.600 C 58.434 381.600,58.800 381.768,58.800 381.974 C 58.800 382.180,59.420 382.573,60.179 382.847 C 60.937 383.121,61.486 383.460,61.400 383.600 C 61.313 383.741,61.773 383.777,62.421 383.682 C 63.311 383.552,63.600 383.668,63.600 384.155 C 63.600 384.510,63.735 384.779,63.900 384.753 C 65.095 384.564,66.153 384.843,65.600 385.200 C 65.145 385.494,65.314 385.589,66.300 385.594 C 67.015 385.597,67.600 385.769,67.600 385.975 C 67.600 386.182,68.245 386.245,69.040 386.116 C 70.027 385.956,70.585 386.052,70.814 386.423 C 71.033 386.776,71.764 386.926,72.921 386.855 C 74.233 386.774,74.756 386.909,74.934 387.373 C 75.132 387.888,75.934 388.000,79.411 388.000 C 82.106 388.000,83.558 388.144,83.402 388.396 C 83.241 388.657,97.329 388.792,124.579 388.792 C 151.663 388.792,166.000 388.655,166.000 388.396 C 166.000 388.173,167.201 388.000,168.751 388.000 C 170.708 388.000,171.646 387.827,172.000 387.400 C 172.274 387.070,172.915 386.800,173.425 386.800 C 173.935 386.800,174.464 386.620,174.600 386.400 C 174.736 386.180,175.445 386.000,176.175 386.000 C 176.905 386.000,177.726 385.730,178.000 385.400 C 178.274 385.070,178.752 384.800,179.062 384.800 C 179.371 384.800,179.733 384.520,179.864 384.177 C 179.996 383.834,180.350 383.649,180.652 383.764 C 180.953 383.880,181.200 383.801,181.200 383.587 C 181.200 383.374,181.546 383.200,181.969 383.200 C 182.392 383.200,183.337 382.504,184.069 381.654 C 184.801 380.804,185.805 379.982,186.300 379.827 C 186.795 379.673,187.200 379.368,187.200 379.149 C 187.200 378.931,187.335 378.835,187.500 378.934 C 187.860 379.153,188.549 378.396,188.730 377.584 C 188.802 377.263,189.028 376.940,189.232 376.866 C 189.437 376.792,189.503 376.567,189.379 376.366 C 189.255 376.165,189.444 376.000,189.800 376.000 C 190.156 376.000,190.359 375.858,190.252 375.684 C 190.145 375.510,190.584 375.015,191.227 374.584 C 191.956 374.096,192.398 373.451,192.399 372.876 C 192.399 372.363,192.578 372.063,192.800 372.200 C 193.020 372.336,193.200 372.184,193.200 371.861 C 193.200 371.178,194.860 367.862,195.300 367.667 C 195.465 367.593,195.600 366.828,195.600 365.967 C 195.600 365.105,195.762 364.400,195.960 364.400 C 196.451 364.400,196.825 361.501,197.054 355.900 C 197.184 352.738,197.108 351.200,196.824 351.200 C 196.588 351.200,196.400 350.400,196.400 349.400 C 196.400 348.410,196.220 347.600,196.000 347.600 C 195.780 347.600,195.600 346.959,195.600 346.176 C 195.600 345.329,195.438 344.853,195.200 345.000 C 194.962 345.147,194.800 344.671,194.800 343.824 C 194.800 343.041,194.620 342.400,194.400 342.400 C 194.180 342.400,194.000 342.170,194.000 341.888 C 194.000 341.607,193.640 341.117,193.200 340.800 C 192.760 340.483,192.400 339.903,192.400 339.512 C 192.400 339.120,192.255 338.800,192.077 338.800 C 191.899 338.800,191.436 338.080,191.048 337.200 C 190.660 336.320,190.075 335.600,189.747 335.600 C 189.395 335.600,189.271 335.409,189.442 335.132 C 189.640 334.811,189.508 334.750,189.021 334.937 C 188.509 335.133,188.371 335.051,188.528 334.644 C 188.658 334.305,188.435 333.998,187.972 333.877 C 187.548 333.766,187.200 333.377,187.200 333.014 C 187.200 332.650,187.020 332.464,186.800 332.600 C 186.580 332.736,186.400 332.556,186.400 332.200 C 186.400 331.844,186.220 331.664,186.000 331.800 C 185.780 331.936,185.600 331.767,185.600 331.424 C 185.600 331.081,185.319 330.800,184.976 330.800 C 184.622 330.800,184.471 330.609,184.626 330.357 C 184.811 330.059,184.622 330.003,184.050 330.184 C 183.523 330.351,183.200 330.281,183.200 329.998 C 183.200 329.431,182.373 328.643,181.594 328.468 C 181.272 328.395,180.893 328.150,180.752 327.923 C 180.592 327.663,180.416 327.712,180.280 328.055 C 180.160 328.357,180.035 328.154,180.000 327.600 C 179.965 327.050,179.849 326.815,179.743 327.078 C 179.489 327.701,178.400 327.279,178.400 326.557 C 178.400 326.207,177.962 326.000,177.224 326.000 C 176.577 326.000,175.925 325.803,175.777 325.562 C 175.628 325.322,175.083 325.206,174.565 325.305 C 174.048 325.403,173.719 325.330,173.836 325.142 C 173.952 324.954,173.533 324.800,172.904 324.800 C 172.275 324.800,171.578 324.618,171.356 324.396 C 171.088 324.128,157.186 324.027,130.076 324.096 L 89.200 324.200 89.200 200.000 L 89.200 75.800 130.076 75.904 C 157.186 75.973,171.088 75.872,171.356 75.604 C 171.578 75.382,172.275 75.200,172.904 75.200 C 173.533 75.200,173.952 75.046,173.836 74.858 C 173.719 74.670,174.048 74.597,174.565 74.695 C 175.083 74.794,175.628 74.678,175.777 74.438 C 175.925 74.197,176.577 74.000,177.224 74.000 C 177.962 74.000,178.400 73.793,178.400 73.443 C 178.400 72.721,179.489 72.299,179.743 72.922 C 179.849 73.185,179.954 72.950,179.975 72.400 C 180.002 71.677,180.108 71.551,180.358 71.945 C 180.562 72.268,180.764 72.321,180.852 72.075 C 180.933 71.847,181.266 71.602,181.590 71.530 C 182.371 71.358,183.200 70.571,183.200 70.002 C 183.200 69.719,183.523 69.649,184.050 69.816 C 184.622 69.997,184.811 69.941,184.626 69.643 C 184.471 69.391,184.622 69.200,184.976 69.200 C 185.319 69.200,185.600 68.919,185.600 68.576 C 185.600 68.233,185.780 68.064,186.000 68.200 C 186.220 68.336,186.400 68.156,186.400 67.800 C 186.400 67.444,186.580 67.264,186.800 67.400 C 187.020 67.536,187.200 67.350,187.200 66.986 C 187.200 66.623,187.548 66.234,187.972 66.123 C 188.435 66.002,188.658 65.695,188.528 65.356 C 188.371 64.949,188.509 64.867,189.021 65.063 C 189.508 65.250,189.640 65.189,189.442 64.868 C 189.271 64.591,189.395 64.400,189.747 64.400 C 190.075 64.400,190.660 63.680,191.048 62.800 C 191.436 61.920,191.899 61.200,192.077 61.200 C 192.255 61.200,192.400 60.880,192.400 60.488 C 192.400 60.097,192.760 59.517,193.200 59.200 C 193.640 58.883,194.000 58.393,194.000 58.112 C 194.000 57.830,194.180 57.600,194.400 57.600 C 194.620 57.600,194.800 56.959,194.800 56.176 C 194.800 55.329,194.962 54.853,195.200 55.000 C 195.438 55.147,195.600 54.671,195.600 53.824 C 195.600 53.041,195.780 52.400,196.000 52.400 C 196.220 52.400,196.400 51.590,196.400 50.600 C 196.400 49.600,196.588 48.800,196.824 48.800 C 197.108 48.800,197.184 47.262,197.054 44.100 C 196.825 38.499,196.451 35.600,195.960 35.600 C 195.762 35.600,195.600 34.895,195.600 34.033 C 195.600 33.172,195.465 32.407,195.300 32.333 C 194.860 32.138,193.200 28.822,193.200 28.139 C 193.200 27.816,193.020 27.664,192.800 27.800 C 192.578 27.937,192.399 27.637,192.399 27.124 C 192.398 26.549,191.956 25.904,191.227 25.416 C 190.584 24.985,190.145 24.490,190.252 24.316 C 190.359 24.142,190.156 24.000,189.800 24.000 C 189.444 24.000,189.255 23.835,189.379 23.634 C 189.503 23.433,189.437 23.208,189.232 23.134 C 189.028 23.060,188.802 22.737,188.730 22.416 C 188.549 21.604,187.860 20.847,187.500 21.066 C 187.335 21.165,187.200 21.069,187.200 20.851 C 187.200 20.632,186.795 20.327,186.300 20.173 C 185.805 20.018,184.801 19.196,184.069 18.346 C 183.337 17.496,182.392 16.800,181.969 16.800 C 181.546 16.800,181.200 16.626,181.200 16.413 C 181.200 16.199,180.953 16.120,180.652 16.236 C 180.350 16.351,179.996 16.166,179.864 15.823 C 179.733 15.480,179.371 15.200,179.062 15.200 C 178.752 15.200,178.274 14.930,178.000 14.600 C 177.726 14.270,176.905 14.000,176.175 14.000 C 175.445 14.000,174.736 13.820,174.600 13.600 C 174.464 13.380,173.935 13.200,173.425 13.200 C 172.915 13.200,172.274 12.930,172.000 12.600 C 171.646 12.173,170.708 12.000,168.751 12.000 C 167.201 12.000,166.000 11.827,166.000 11.604 C 166.000 11.345,151.663 11.208,124.579 11.208 C 97.329 11.208,83.241 11.343,83.402 11.604 M244.200 54.000 C 244.344 54.233,243.937 54.400,243.224 54.400 C 242.551 54.400,242.000 54.580,242.000 54.800 C 242.000 55.020,241.724 55.200,241.387 55.200 C 240.233 55.200,237.200 58.836,237.200 60.218 C 237.200 60.564,237.020 60.736,236.800 60.600 C 236.569 60.457,236.400 60.840,236.400 61.510 C 236.400 62.146,236.306 62.761,236.191 62.876 C 236.076 62.990,235.941 74.315,235.891 88.042 L 235.800 113.000 187.427 113.095 C 160.821 113.148,138.951 113.345,138.827 113.534 C 138.702 113.722,138.127 113.993,137.548 114.134 C 136.228 114.457,132.312 117.933,132.651 118.482 C 132.789 118.706,132.384 119.302,131.751 119.806 L 130.600 120.724 130.600 200.000 L 130.600 279.276 131.751 280.194 C 132.384 280.698,132.789 281.294,132.651 281.518 C 132.312 282.067,136.228 285.543,137.548 285.866 C 138.127 286.007,138.702 286.278,138.827 286.466 C 138.951 286.655,160.821 286.852,187.427 286.905 L 235.800 287.000 235.891 311.958 C 235.941 325.685,236.076 337.010,236.191 337.124 C 236.306 337.239,236.400 337.854,236.400 338.490 C 236.400 339.160,236.569 339.543,236.800 339.400 C 237.020 339.264,237.200 339.436,237.200 339.782 C 237.200 341.164,240.233 344.800,241.387 344.800 C 241.724 344.800,242.000 344.980,242.000 345.200 C 242.000 345.420,242.551 345.600,243.224 345.600 C 243.937 345.600,244.344 345.767,244.200 346.000 C 244.056 346.233,244.463 346.400,245.176 346.400 C 245.849 346.400,246.400 346.220,246.400 346.000 C 246.400 345.780,247.120 345.600,248.000 345.600 C 248.880 345.600,249.600 345.420,249.600 345.200 C 249.600 344.980,249.920 344.800,250.312 344.800 C 250.703 344.800,251.283 344.440,251.600 344.000 C 251.917 343.560,252.331 343.200,252.520 343.200 C 252.982 343.200,257.653 339.119,257.437 338.904 C 257.230 338.696,262.076 334.000,262.498 334.000 C 262.664 334.000,262.800 333.719,262.800 333.376 C 262.800 333.033,262.980 332.864,263.200 333.000 C 263.420 333.136,263.600 332.956,263.600 332.600 C 263.600 332.244,263.735 332.030,263.900 332.124 C 264.295 332.349,266.019 330.552,265.707 330.241 C 265.575 330.108,265.701 330.000,265.986 330.000 C 266.476 330.000,266.839 329.655,268.941 327.195 C 269.414 326.642,270.560 325.581,271.488 324.837 C 272.417 324.094,273.064 323.303,272.926 323.081 C 272.789 322.858,272.858 322.789,273.081 322.926 C 273.303 323.064,274.094 322.417,274.837 321.488 C 275.581 320.560,276.642 319.414,277.195 318.941 C 279.641 316.851,280.000 316.479,280.000 316.029 C 280.000 315.767,280.135 315.630,280.300 315.724 C 280.695 315.949,282.419 314.152,282.107 313.841 C 281.975 313.708,282.177 313.600,282.557 313.600 C 282.937 313.600,283.136 313.420,283.000 313.200 C 282.864 312.980,283.033 312.800,283.376 312.800 C 283.719 312.800,284.000 312.664,284.000 312.498 C 284.000 312.332,285.080 311.072,286.400 309.698 C 287.720 308.324,288.800 307.310,288.800 307.445 C 288.800 307.580,290.507 305.915,292.594 303.745 C 294.681 301.575,296.391 299.635,296.394 299.433 C 296.397 299.232,296.508 299.174,296.639 299.306 C 296.948 299.615,299.541 297.096,299.320 296.700 C 299.228 296.535,299.298 296.397,299.476 296.394 C 299.852 296.387,307.813 288.800,307.445 288.800 C 307.310 288.800,308.324 287.720,309.698 286.400 C 311.072 285.080,312.332 284.000,312.498 284.000 C 312.664 284.000,312.800 283.719,312.800 283.376 C 312.800 283.033,312.980 282.864,313.200 283.000 C 313.420 283.136,313.600 282.956,313.600 282.600 C 313.600 282.244,313.735 282.030,313.900 282.124 C 314.295 282.349,316.019 280.552,315.707 280.241 C 315.575 280.108,315.701 280.000,315.986 280.000 C 316.476 280.000,316.839 279.655,318.941 277.195 C 319.414 276.642,320.560 275.581,321.488 274.837 C 322.417 274.094,323.064 273.303,322.926 273.081 C 322.789 272.858,322.858 272.789,323.081 272.926 C 323.303 273.064,324.094 272.417,324.837 271.488 C 325.581 270.560,326.642 269.414,327.195 268.941 C 329.641 266.851,330.000 266.479,330.000 266.029 C 330.000 265.767,330.135 265.630,330.300 265.724 C 330.695 265.949,332.419 264.152,332.107 263.841 C 331.975 263.708,332.177 263.600,332.557 263.600 C 332.937 263.600,333.136 263.420,333.000 263.200 C 332.864 262.980,333.033 262.800,333.376 262.800 C 333.719 262.800,334.000 262.664,334.000 262.498 C 334.000 262.332,335.080 261.072,336.400 259.698 C 337.720 258.324,338.800 257.310,338.800 257.445 C 338.800 257.813,346.387 249.852,346.394 249.476 C 346.397 249.298,346.535 249.228,346.700 249.320 C 347.096 249.541,349.615 246.948,349.306 246.639 C 349.174 246.508,349.232 246.397,349.433 246.394 C 349.635 246.391,351.575 244.681,353.745 242.594 C 355.915 240.507,357.580 238.800,357.445 238.800 C 357.310 238.800,358.324 237.720,359.698 236.400 C 361.072 235.080,362.332 234.000,362.498 234.000 C 362.664 234.000,362.800 233.719,362.800 233.376 C 362.800 233.033,362.980 232.864,363.200 233.000 C 363.420 233.136,363.600 232.956,363.600 232.600 C 363.600 232.244,363.735 232.030,363.900 232.124 C 364.295 232.349,366.019 230.552,365.707 230.241 C 365.575 230.108,365.701 230.000,365.986 230.000 C 366.476 230.000,366.839 229.655,368.941 227.195 C 369.414 226.642,370.560 225.581,371.488 224.837 C 372.417 224.094,373.064 223.303,372.926 223.081 C 372.789 222.858,372.858 222.789,373.081 222.926 C 373.303 223.064,374.094 222.417,374.837 221.488 C 375.581 220.560,376.642 219.414,377.195 218.941 C 379.647 216.847,380.000 216.478,380.000 216.014 C 380.000 215.743,380.540 215.017,381.200 214.400 C 381.860 213.783,382.400 212.991,382.400 212.640 C 382.400 212.288,382.580 212.000,382.800 212.000 C 383.020 212.000,383.200 211.539,383.200 210.976 C 383.200 210.406,383.375 210.061,383.594 210.196 C 383.838 210.347,383.895 209.976,383.744 209.220 C 383.552 208.260,383.639 208.000,384.150 208.000 C 384.608 208.000,384.800 207.639,384.800 206.776 C 384.800 206.063,384.967 205.656,385.200 205.800 C 385.460 205.961,385.600 203.930,385.600 200.000 C 385.600 196.070,385.460 194.039,385.200 194.200 C 384.967 194.344,384.800 193.937,384.800 193.224 C 384.800 192.361,384.608 192.000,384.150 192.000 C 383.639 192.000,383.552 191.740,383.744 190.780 C 383.895 190.024,383.838 189.653,383.594 189.804 C 383.375 189.939,383.200 189.594,383.200 189.024 C 383.200 188.461,383.020 188.000,382.800 188.000 C 382.580 188.000,382.400 187.712,382.400 187.360 C 382.400 187.009,381.860 186.217,381.200 185.600 C 380.540 184.983,380.000 184.257,380.000 183.986 C 380.000 183.522,379.647 183.153,377.195 181.059 C 376.642 180.586,375.581 179.440,374.837 178.512 C 374.094 177.583,373.303 176.936,373.081 177.074 C 372.858 177.211,372.789 177.142,372.926 176.919 C 373.064 176.697,372.417 175.906,371.488 175.163 C 370.560 174.419,369.414 173.358,368.941 172.805 C 366.851 170.359,366.479 170.000,366.029 170.000 C 365.767 170.000,365.630 169.865,365.724 169.700 C 365.949 169.305,364.152 167.581,363.841 167.893 C 363.708 168.025,363.600 167.823,363.600 167.443 C 363.600 167.063,363.420 166.864,363.200 167.000 C 362.980 167.136,362.800 166.967,362.800 166.624 C 362.800 166.281,362.664 166.000,362.498 166.000 C 362.332 166.000,361.072 164.920,359.698 163.600 C 358.324 162.280,357.310 161.200,357.445 161.200 C 357.813 161.200,349.852 153.613,349.476 153.606 C 349.298 153.603,349.228 153.465,349.320 153.300 C 349.541 152.904,346.948 150.385,346.639 150.694 C 346.508 150.826,346.397 150.768,346.394 150.567 C 346.391 150.365,344.681 148.425,342.594 146.255 C 340.507 144.085,338.800 142.420,338.800 142.555 C 338.800 142.690,337.720 141.676,336.400 140.302 C 335.080 138.928,334.000 137.668,334.000 137.502 C 334.000 137.336,333.719 137.200,333.376 137.200 C 333.033 137.200,332.864 137.020,333.000 136.800 C 333.136 136.580,332.956 136.400,332.600 136.400 C 332.244 136.400,332.030 136.265,332.124 136.100 C 332.349 135.705,330.552 133.981,330.241 134.293 C 330.108 134.425,330.000 134.299,330.000 134.014 C 330.000 133.524,329.655 133.161,327.195 131.059 C 326.642 130.586,325.581 129.440,324.837 128.512 C 324.094 127.583,323.303 126.936,323.081 127.074 C 322.858 127.211,322.789 127.142,322.926 126.919 C 323.064 126.697,322.417 125.906,321.488 125.163 C 320.560 124.419,319.414 123.358,318.941 122.805 C 316.851 120.359,316.479 120.000,316.029 120.000 C 315.767 120.000,315.630 119.865,315.724 119.700 C 315.949 119.305,314.152 117.581,313.841 117.893 C 313.708 118.025,313.600 117.823,313.600 117.443 C 313.600 117.063,313.420 116.864,313.200 117.000 C 312.980 117.136,312.800 116.967,312.800 116.624 C 312.800 116.281,312.664 116.000,312.498 116.000 C 312.332 116.000,311.072 114.920,309.698 113.600 C 308.324 112.280,307.310 111.200,307.445 111.200 C 307.580 111.200,305.915 109.493,303.745 107.406 C 301.575 105.319,299.635 103.609,299.433 103.606 C 299.232 103.603,299.174 103.492,299.306 103.361 C 299.615 103.052,297.096 100.459,296.700 100.680 C 296.535 100.772,296.397 100.702,296.394 100.524 C 296.387 100.148,288.800 92.187,288.800 92.555 C 288.800 92.690,287.720 91.676,286.400 90.302 C 285.080 88.928,284.000 87.668,284.000 87.502 C 284.000 87.336,283.719 87.200,283.376 87.200 C 283.033 87.200,282.864 87.020,283.000 86.800 C 283.136 86.580,282.956 86.400,282.600 86.400 C 282.244 86.400,282.030 86.265,282.124 86.100 C 282.349 85.705,280.552 83.981,280.241 84.293 C 280.108 84.425,280.000 84.299,280.000 84.014 C 280.000 83.524,279.655 83.161,277.195 81.059 C 276.642 80.586,275.581 79.440,274.837 78.512 C 274.094 77.583,273.303 76.936,273.081 77.074 C 272.858 77.211,272.789 77.142,272.926 76.919 C 273.064 76.697,272.417 75.906,271.488 75.163 C 270.560 74.419,269.414 73.358,268.941 72.805 C 266.839 70.345,266.476 70.000,265.986 70.000 C 265.701 70.000,265.575 69.892,265.707 69.759 C 266.019 69.448,264.295 67.651,263.900 67.876 C 263.735 67.970,263.600 67.756,263.600 67.400 C 263.600 67.044,263.420 66.864,263.200 67.000 C 262.980 67.136,262.800 66.967,262.800 66.624 C 262.800 66.281,262.664 66.000,262.498 66.000 C 262.076 66.000,257.230 61.304,257.437 61.096 C 257.653 60.881,252.982 56.800,252.520 56.800 C 252.331 56.800,251.917 56.440,251.600 56.000 C 251.283 55.560,250.703 55.200,250.312 55.200 C 249.920 55.200,249.600 55.020,249.600 54.800 C 249.600 54.580,248.880 54.400,248.000 54.400 C 247.120 54.400,246.400 54.220,246.400 54.000 C 246.400 53.780,245.849 53.600,245.176 53.600 C 244.463 53.600,244.056 53.767,244.200 54.000 " stroke="none" fill="#4cd4ec" fill-rule="evenodd"></path><path id="path1" d="M171.949 12.500 C 172.252 12.886,172.970 13.176,173.549 13.146 L 174.600 13.091 173.600 12.907 C 173.050 12.806,172.330 12.516,172.000 12.262 C 171.478 11.860,171.471 11.891,171.949 12.500 M72.300 13.082 C 72.795 13.178,73.605 13.178,74.100 13.082 C 74.595 12.987,74.190 12.909,73.200 12.909 C 72.210 12.909,71.805 12.987,72.300 13.082 M68.900 13.876 C 69.285 13.976,69.915 13.976,70.300 13.876 C 70.685 13.775,70.370 13.693,69.600 13.693 C 68.830 13.693,68.515 13.775,68.900 13.876 M175.505 13.883 C 176.002 13.979,176.722 13.975,177.105 13.875 C 177.487 13.775,177.080 13.696,176.200 13.701 C 175.320 13.705,175.007 13.787,175.505 13.883 M61.445 16.328 C 61.333 16.508,61.773 16.577,62.421 16.482 C 63.070 16.387,63.600 16.240,63.600 16.155 C 63.600 15.850,61.643 16.007,61.445 16.328 M26.800 55.400 C 26.800 56.170,26.870 56.800,26.956 56.800 C 27.042 56.800,27.186 56.170,27.276 55.400 C 27.366 54.630,27.296 54.000,27.120 54.000 C 26.944 54.000,26.800 54.630,26.800 55.400 M235.697 88.098 L 235.600 112.797 187.500 112.900 L 139.400 113.003 187.513 113.102 C 225.707 113.180,235.665 113.097,235.816 112.700 C 235.921 112.425,235.959 101.220,235.901 87.800 L 235.794 63.400 235.697 88.098 M89.397 200.000 C 89.397 268.530,89.444 296.565,89.500 262.300 C 89.556 228.035,89.556 171.965,89.500 137.700 C 89.444 103.435,89.397 131.470,89.397 200.000 M130.196 200.000 C 130.196 242.790,130.243 260.295,130.300 238.900 C 130.357 217.505,130.357 182.495,130.300 161.100 C 130.243 139.705,130.196 157.210,130.196 200.000 M187.697 287.099 L 235.594 287.203 235.702 311.702 L 235.809 336.200 235.805 311.600 L 235.800 287.000 187.800 286.998 L 139.800 286.995 187.697 287.099 M26.800 344.600 C 26.800 345.370,26.944 346.000,27.120 346.000 C 27.296 346.000,27.366 345.370,27.276 344.600 C 27.186 343.830,27.042 343.200,26.956 343.200 C 26.870 343.200,26.800 343.830,26.800 344.600 M61.541 383.701 C 61.743 383.903,62.333 384.001,62.854 383.919 C 63.655 383.793,63.598 383.737,62.487 383.552 C 61.693 383.421,61.319 383.479,61.541 383.701 M68.900 386.276 C 69.285 386.376,69.915 386.376,70.300 386.276 C 70.685 386.175,70.370 386.093,69.600 386.093 C 68.830 386.093,68.515 386.175,68.900 386.276 M175.505 386.283 C 176.002 386.379,176.722 386.375,177.105 386.275 C 177.487 386.175,177.080 386.096,176.200 386.101 C 175.320 386.105,175.007 386.187,175.505 386.283 M72.300 387.082 C 72.795 387.178,73.605 387.178,74.100 387.082 C 74.595 386.987,74.190 386.909,73.200 386.909 C 72.210 386.909,71.805 386.987,72.300 387.082 M171.949 387.500 C 171.471 388.109,171.478 388.140,172.000 387.738 C 172.330 387.484,173.050 387.194,173.600 387.093 L 174.600 386.909 173.549 386.854 C 172.970 386.824,172.252 387.114,171.949 387.500 " stroke="none" fill="#50d4ec" fill-rule="evenodd"></path><path id="path2" d="M171.949 12.500 C 172.252 12.886,172.970 13.176,173.549 13.146 L 174.600 13.091 173.600 12.907 C 173.050 12.806,172.330 12.516,172.000 12.262 C 171.478 11.860,171.471 11.891,171.949 12.500 M72.300 13.082 C 72.795 13.178,73.605 13.178,74.100 13.082 C 74.595 12.987,74.190 12.909,73.200 12.909 C 72.210 12.909,71.805 12.987,72.300 13.082 M68.900 13.876 C 69.285 13.976,69.915 13.976,70.300 13.876 C 70.685 13.775,70.370 13.693,69.600 13.693 C 68.830 13.693,68.515 13.775,68.900 13.876 M175.505 13.883 C 176.002 13.979,176.722 13.975,177.105 13.875 C 177.487 13.775,177.080 13.696,176.200 13.701 C 175.320 13.705,175.007 13.787,175.505 13.883 M61.445 16.328 C 61.333 16.508,61.773 16.577,62.421 16.482 C 63.070 16.387,63.600 16.240,63.600 16.155 C 63.600 15.850,61.643 16.007,61.445 16.328 M26.800 55.400 C 26.800 56.170,26.870 56.800,26.956 56.800 C 27.042 56.800,27.186 56.170,27.276 55.400 C 27.366 54.630,27.296 54.000,27.120 54.000 C 26.944 54.000,26.800 54.630,26.800 55.400 M235.697 88.098 L 235.600 112.797 187.500 112.900 L 139.400 113.003 187.513 113.102 C 225.707 113.180,235.665 113.097,235.816 112.700 C 235.921 112.425,235.959 101.220,235.901 87.800 L 235.794 63.400 235.697 88.098 M89.397 200.000 C 89.397 268.530,89.444 296.565,89.500 262.300 C 89.556 228.035,89.556 171.965,89.500 137.700 C 89.444 103.435,89.397 131.470,89.397 200.000 M130.196 200.000 C 130.196 242.790,130.243 260.295,130.300 238.900 C 130.357 217.505,130.357 182.495,130.300 161.100 C 130.243 139.705,130.196 157.210,130.196 200.000 M187.697 287.099 L 235.594 287.203 235.702 311.702 L 235.809 336.200 235.805 311.600 L 235.800 287.000 187.800 286.998 L 139.800 286.995 187.697 287.099 M26.800 344.600 C 26.800 345.370,26.944 346.000,27.120 346.000 C 27.296 346.000,27.366 345.370,27.276 344.600 C 27.186 343.830,27.042 343.200,26.956 343.200 C 26.870 343.200,26.800 343.830,26.800 344.600 M61.541 383.701 C 61.743 383.903,62.333 384.001,62.854 383.919 C 63.655 383.793,63.598 383.737,62.487 383.552 C 61.693 383.421,61.319 383.479,61.541 383.701 M68.900 386.276 C 69.285 386.376,69.915 386.376,70.300 386.276 C 70.685 386.175,70.370 386.093,69.600 386.093 C 68.830 386.093,68.515 386.175,68.900 386.276 M175.505 386.283 C 176.002 386.379,176.722 386.375,177.105 386.275 C 177.487 386.175,177.080 386.096,176.200 386.101 C 175.320 386.105,175.007 386.187,175.505 386.283 M72.300 387.082 C 72.795 387.178,73.605 387.178,74.100 387.082 C 74.595 386.987,74.190 386.909,73.200 386.909 C 72.210 386.909,71.805 386.987,72.300 387.082 M171.949 387.500 C 171.471 388.109,171.478 388.140,172.000 387.738 C 172.330 387.484,173.050 387.194,173.600 387.093 L 174.600 386.909 173.549 386.854 C 172.970 386.824,172.252 387.114,171.949 387.500 " stroke="none" fill="#50d4ec" fill-rule="evenodd"></path><path id="path3" d="M171.949 12.500 C 172.252 12.886,172.970 13.176,173.549 13.146 L 174.600 13.091 173.600 12.907 C 173.050 12.806,172.330 12.516,172.000 12.262 C 171.478 11.860,171.471 11.891,171.949 12.500 M72.300 13.082 C 72.795 13.178,73.605 13.178,74.100 13.082 C 74.595 12.987,74.190 12.909,73.200 12.909 C 72.210 12.909,71.805 12.987,72.300 13.082 M68.900 13.876 C 69.285 13.976,69.915 13.976,70.300 13.876 C 70.685 13.775,70.370 13.693,69.600 13.693 C 68.830 13.693,68.515 13.775,68.900 13.876 M175.505 13.883 C 176.002 13.979,176.722 13.975,177.105 13.875 C 177.487 13.775,177.080 13.696,176.200 13.701 C 175.320 13.705,175.007 13.787,175.505 13.883 M61.445 16.328 C 61.333 16.508,61.773 16.577,62.421 16.482 C 63.070 16.387,63.600 16.240,63.600 16.155 C 63.600 15.850,61.643 16.007,61.445 16.328 M26.800 55.400 C 26.800 56.170,26.870 56.800,26.956 56.800 C 27.042 56.800,27.186 56.170,27.276 55.400 C 27.366 54.630,27.296 54.000,27.120 54.000 C 26.944 54.000,26.800 54.630,26.800 55.400 M235.697 88.098 L 235.600 112.797 187.500 112.900 L 139.400 113.003 187.513 113.102 C 225.707 113.180,235.665 113.097,235.816 112.700 C 235.921 112.425,235.959 101.220,235.901 87.800 L 235.794 63.400 235.697 88.098 M89.397 200.000 C 89.397 268.530,89.444 296.565,89.500 262.300 C 89.556 228.035,89.556 171.965,89.500 137.700 C 89.444 103.435,89.397 131.470,89.397 200.000 M130.196 200.000 C 130.196 242.790,130.243 260.295,130.300 238.900 C 130.357 217.505,130.357 182.495,130.300 161.100 C 130.243 139.705,130.196 157.210,130.196 200.000 M187.697 287.099 L 235.594 287.203 235.702 311.702 L 235.809 336.200 235.805 311.600 L 235.800 287.000 187.800 286.998 L 139.800 286.995 187.697 287.099 M26.800 344.600 C 26.800 345.370,26.944 346.000,27.120 346.000 C 27.296 346.000,27.366 345.370,27.276 344.600 C 27.186 343.830,27.042 343.200,26.956 343.200 C 26.870 343.200,26.800 343.830,26.800 344.600 M61.541 383.701 C 61.743 383.903,62.333 384.001,62.854 383.919 C 63.655 383.793,63.598 383.737,62.487 383.552 C 61.693 383.421,61.319 383.479,61.541 383.701 M68.900 386.276 C 69.285 386.376,69.915 386.376,70.300 386.276 C 70.685 386.175,70.370 386.093,69.600 386.093 C 68.830 386.093,68.515 386.175,68.900 386.276 M175.505 386.283 C 176.002 386.379,176.722 386.375,177.105 386.275 C 177.487 386.175,177.080 386.096,176.200 386.101 C 175.320 386.105,175.007 386.187,175.505 386.283 M72.300 387.082 C 72.795 387.178,73.605 387.178,74.100 387.082 C 74.595 386.987,74.190 386.909,73.200 386.909 C 72.210 386.909,71.805 386.987,72.300 387.082 M171.949 387.500 C 171.471 388.109,171.478 388.140,172.000 387.738 C 172.330 387.484,173.050 387.194,173.600 387.093 L 174.600 386.909 173.549 386.854 C 172.970 386.824,172.252 387.114,171.949 387.500 " stroke="none" fill="#50d4ec" fill-rule="evenodd"></path><path id="path4" d="M171.949 12.500 C 172.252 12.886,172.970 13.176,173.549 13.146 L 174.600 13.091 173.600 12.907 C 173.050 12.806,172.330 12.516,172.000 12.262 C 171.478 11.860,171.471 11.891,171.949 12.500 M72.300 13.082 C 72.795 13.178,73.605 13.178,74.100 13.082 C 74.595 12.987,74.190 12.909,73.200 12.909 C 72.210 12.909,71.805 12.987,72.300 13.082 M68.900 13.876 C 69.285 13.976,69.915 13.976,70.300 13.876 C 70.685 13.775,70.370 13.693,69.600 13.693 C 68.830 13.693,68.515 13.775,68.900 13.876 M175.505 13.883 C 176.002 13.979,176.722 13.975,177.105 13.875 C 177.487 13.775,177.080 13.696,176.200 13.701 C 175.320 13.705,175.007 13.787,175.505 13.883 M61.445 16.328 C 61.333 16.508,61.773 16.577,62.421 16.482 C 63.070 16.387,63.600 16.240,63.600 16.155 C 63.600 15.850,61.643 16.007,61.445 16.328 M26.800 55.400 C 26.800 56.170,26.870 56.800,26.956 56.800 C 27.042 56.800,27.186 56.170,27.276 55.400 C 27.366 54.630,27.296 54.000,27.120 54.000 C 26.944 54.000,26.800 54.630,26.800 55.400 M235.697 88.098 L 235.600 112.797 187.500 112.900 L 139.400 113.003 187.513 113.102 C 225.707 113.180,235.665 113.097,235.816 112.700 C 235.921 112.425,235.959 101.220,235.901 87.800 L 235.794 63.400 235.697 88.098 M89.397 200.000 C 89.397 268.530,89.444 296.565,89.500 262.300 C 89.556 228.035,89.556 171.965,89.500 137.700 C 89.444 103.435,89.397 131.470,89.397 200.000 M130.196 200.000 C 130.196 242.790,130.243 260.295,130.300 238.900 C 130.357 217.505,130.357 182.495,130.300 161.100 C 130.243 139.705,130.196 157.210,130.196 200.000 M187.697 287.099 L 235.594 287.203 235.702 311.702 L 235.809 336.200 235.805 311.600 L 235.800 287.000 187.800 286.998 L 139.800 286.995 187.697 287.099 M26.800 344.600 C 26.800 345.370,26.944 346.000,27.120 346.000 C 27.296 346.000,27.366 345.370,27.276 344.600 C 27.186 343.830,27.042 343.200,26.956 343.200 C 26.870 343.200,26.800 343.830,26.800 344.600 M61.541 383.701 C 61.743 383.903,62.333 384.001,62.854 383.919 C 63.655 383.793,63.598 383.737,62.487 383.552 C 61.693 383.421,61.319 383.479,61.541 383.701 M68.900 386.276 C 69.285 386.376,69.915 386.376,70.300 386.276 C 70.685 386.175,70.370 386.093,69.600 386.093 C 68.830 386.093,68.515 386.175,68.900 386.276 M175.505 386.283 C 176.002 386.379,176.722 386.375,177.105 386.275 C 177.487 386.175,177.080 386.096,176.200 386.101 C 175.320 386.105,175.007 386.187,175.505 386.283 M72.300 387.082 C 72.795 387.178,73.605 387.178,74.100 387.082 C 74.595 386.987,74.190 386.909,73.200 386.909 C 72.210 386.909,71.805 386.987,72.300 387.082 M171.949 387.500 C 171.471 388.109,171.478 388.140,172.000 387.738 C 172.330 387.484,173.050 387.194,173.600 387.093 L 174.600 386.909 173.549 386.854 C 172.970 386.824,172.252 387.114,171.949 387.500 " stroke="none" fill="#50d4ec" fill-rule="evenodd"></path></g></svg>